<mxfile host="app.diagrams.net" modified="2023-04-05T09:52:40.947Z" agent="Mozilla/5.0 (X11; Linux x86_64; rv:109.0) Gecko/20100101 Firefox/109.0" version="21.1.4" etag="FsfkOMnCdnC7GaCdHAby" type="github">
  <diagram name="Page-1" id="vQHK51o4QJtuvtJI83-D">
    <mxGraphModel>
      <root>
        <mxCell id="0" />
        <mxCell id="1" parent="0" />
      </root>
    </mxGraphModel>
  </diagram>
</mxfile>
